<svg xmlns="http://www.w3.org/2000/svg" width="24" height="24" viewBox="0 0 24 24"><g transform="matrix(1 0 0 1 0 0)" opacity="1"><g transform="matrix(1 0 0 1 0 0)" opacity="1"><g transform="matrix(1 0 0 1 0 0)" opacity="1"><g transform="matrix(1 0 0 1 12 6.440000057220459)" opacity="1"><path fill="#ada7a7" fill-rule="nonzero" d="M0.75 0 C0.75 -0.414214 0.414214 -0.75 0 -0.75 C-0.414214 -0.75 -0.75 -0.414214 -0.75 0 L0 0 L0.75 0 Z M-0.75 3.33 C-0.75 3.74421 -0.414214 4.08 0 4.08 C0.414214 4.08 0.75 3.74421 0.75 3.33 L0 3.33 L-0.75 3.33 Z M0 0 L-0.75 0 L-0.75 3.33 L0 3.33 L0.75 3.33 L0.75 0 L0 0 Z"/></g><g transform="matrix(1 0 0 1 3.1026413440704346 2)" opacity="1"><path fill="#ada7a7" fill-rule="nonzero" d="M1.62736 11.04 L0.985215 10.6525 L0.983971 10.6546 L1.62736 11.04 Z M0.357359 13.16 L-0.286031 12.7746 L-0.287059 12.7763 L0.357359 13.16 Z M1.55736 16.41 L1.32019 17.1215 L1.32063 17.1217 L1.55736 16.41 Z M16.2874 16.41 L16.5241 17.1217 L16.5245 17.1215 L16.2874 16.41 Z M17.4874 13.16 L18.1309 12.7749 L18.1307 12.7746 L17.4874 13.16 Z M16.2174 11.04 L16.8607 10.6546 L16.8595 10.6525 L16.2174 11.04 Z M15.5874 6.66 L16.3374 6.66 L16.3374 6.65795 L15.5874 6.66 Z M8.91736 0 L8.91736 -0.75 C4.82315 -0.75 1.50736 2.56579 1.50736 6.66 L2.25736 6.66 L3.00736 6.66 C3.00736 3.39421 5.65157 0.75 8.91736 0.75 L8.91736 0 Z M2.25736 6.66 L1.50736 6.66 L1.50736 8.76 L2.25736 8.76 L3.00736 8.76 L3.00736 6.66 L2.25736 6.66 Z M2.25736 8.76 L1.50736 8.76 C1.50736 9.01181 1.45298 9.36685 1.35059 9.73812 C1.2481 10.1098 1.11339 10.4401 0.985218 10.6525 L1.62736 11.04 L2.2695 11.4275 C2.49133 11.0599 2.67162 10.5902 2.79662 10.1369 C2.92174 9.68315 3.00736 9.18819 3.00736 8.76 L2.25736 8.76 Z M1.62736 11.04 L0.983971 10.6546 L-0.286029 12.7746 L0.357359 13.16 L1.00075 13.5454 L2.27075 11.4254 L1.62736 11.04 Z M0.357359 13.16 L-0.287059 12.7763 C-0.78181 13.6072 -0.88189 14.5354 -0.578669 15.3562 C-0.275331 16.1773 0.404079 16.8161 1.32019 17.1215 L1.55736 16.41 L1.79453 15.6985 C1.27064 15.5239 0.960048 15.1927 0.828386 14.8363 C0.696607 14.4796 0.716528 14.0228 1.00178 13.5437 L0.357359 13.16 Z M1.55736 16.41 L1.32063 17.1217 C6.25431 18.7628 11.5904 18.7628 16.5241 17.1217 L16.2874 16.41 L16.0506 15.6983 C11.4243 17.2372 6.42041 17.2372 1.79408 15.6983 L1.55736 16.41 Z M16.2874 16.41 L16.5245 17.1215 C18.3321 16.519 19.1056 14.4038 18.1309 12.7749 L17.4874 13.16 L16.8438 13.5451 C17.3291 14.3562 16.9426 15.401 16.0502 15.6985 L16.2874 16.41 Z M17.4874 13.16 L18.1307 12.7746 L16.8607 10.6546 L16.2174 11.04 L15.574 11.4254 L16.844 13.5454 L17.4874 13.16 Z M16.2174 11.04 L16.8595 10.6525 C16.7319 10.441 16.5971 10.1089 16.4943 9.73493 C16.3916 9.36138 16.3374 9.00638 16.3374 8.76 L15.5874 8.76 L14.8374 8.76 C14.8374 9.18362 14.9231 9.67862 15.0479 10.1326 C15.1726 10.5861 15.3528 11.059 15.5752 11.4275 L16.2174 11.04 Z M15.5874 8.76 L16.3374 8.76 L16.3374 6.66 L15.5874 6.66 L14.8374 6.66 L14.8374 8.76 L15.5874 8.76 Z M15.5874 6.66 L16.3374 6.65795 C16.3262 2.58574 12.992 -0.75 8.91736 -0.75 L8.91736 0 L8.91736 0.75 C12.1627 0.75 14.8285 3.41426 14.8374 6.66205 L15.5874 6.66 Z"/></g><g transform="matrix(1 0 0 1 8.670000076293945 18.81999969482422)" opacity="1"><path fill="#ada7a7" fill-rule="nonzero" d="M6.66 0 L5.91 0 C5.91 1.41579 4.74579 2.58 3.33 2.58 L3.33 3.33 L3.33 4.08 C5.57421 4.08 7.41 2.24421 7.41 0 L6.66 0 Z M3.33 3.33 L3.33 2.58 C2.62992 2.58 1.97766 2.287 1.51033 1.81967 L0.98 2.35 L0.449669 2.88033 C1.18234 3.613 2.21008 4.08 3.33 4.08 L3.33 3.33 Z M0.98 2.35 L1.51033 1.81967 C1.043 1.35234 0.75 0.700079 0.75 0 L0 0 L-0.75 0 C-0.75 1.11992 -0.283002 2.14766 0.449669 2.88033 L0.98 2.35 Z"/></g></g></g></g></svg>